<?xml version="1.0" encoding="UTF-8"?><svg id="Layer_1" xmlns="http://www.w3.org/2000/svg" viewBox="0 0 290.7 95.2"><defs><style>.cls-1{fill:#60a140;}</style></defs><path class="cls-1" d="M3,4H23.5c18.7,0,24.8,8.4,24.8,19.4s-6.3,19.4-23,19.4H3V4Zm21.8,28.4c6.4,0,8.9-3.2,8.9-9s-2.5-9-9.3-9h-6.6v18.1h7Z"/><path class="cls-1" d="M51.5,23.3c0-12.3,8.4-19.8,21.4-19.8s21.4,7.6,21.4,19.8-8.3,20.2-21.4,20.2-21.4-7.4-21.4-20.2Zm29.7,0c0-6.8-3.6-10.2-8.3-10.2s-8.3,3.4-8.3,10.2,3.6,10.4,8.3,10.4,8.3-3.4,8.3-10.4Z"/><path class="cls-1" d="M95.2,4h9.7l3.2,26.5h.2l3.6-26.6h8.5l3.6,26.6h.2l3.1-26.5h8.7l-7.1,38.8h-10l-3.2-24.4h-.2l-3.5,24.4h-9.6l-7.1-38.8h0Z"/><path class="cls-1" d="M138.6,4h9.3l3.9,27.4h.1l-.9-27.4h6V42.9h-8l-5-30.2h-.1l.8,30.2h-6V4h-.1Z"/><path class="cls-1" d="M166,11.6h-6.7V4h22v7.6h-6.6v31.3h-8.7V11.6Z"/><path class="cls-1" d="M182.2,23.3c0-12.3,8.4-19.8,21.4-19.8s21.4,7.6,21.4,19.8-8.3,20.2-21.4,20.2-21.4-7.4-21.4-20.2Zm29.7,0c0-6.8-3.6-10.2-8.3-10.2s-8.3,3.4-8.3,10.2,3.6,10.4,8.3,10.4,8.3-3.4,8.3-10.4Z"/><path class="cls-1" d="M225.9,4h9.7l3.2,26.5h.2l3.6-26.6h8.5l3.6,26.6h.2l3.1-26.5h8.7l-7.1,38.8h-10l-3.2-24.4h-.2l-3.5,24.4h-9.6l-7.1-38.8h-.1Z"/><path class="cls-1" d="M269.3,4h9.3l3.9,27.4h.1l-.9-27.4h6V42.9h-8l-5-30.2h-.1l.8,30.2h-6V4h0Z"/><path class="cls-1" d="M3,52.3H23.5c18.7,0,24.8,8.4,24.8,19.4s-6.3,19.4-23,19.4H3V52.3Zm21.8,28.4c6.4,0,8.9-3.2,8.9-9s-2.5-9-9.3-9h-6.6v18.1h7Z"/><path class="cls-1" d="M53.3,52.3h27.5v7.6h-17.8v8.7h13.8v5.9h-13.8v9h18.4v7.6h-28V52.3h-.1Z"/><path class="cls-1" d="M85,52.3h9.3l3.9,27.4h0l-.9-27.4h6v38.8h-8l-5-30.2h0l.8,30.2h-6V52.3h-.1Z"/><path class="cls-1" d="M117,59.9h-11v-7.6h31.7v7.6h-11v31.2h-9.7v-31.2Z"/><path class="cls-1" d="M141.6,52.3h11.3v38.8h-11.3V52.3Z"/><path class="cls-1" d="M159.7,78h10.2c0,3.3,2.4,6,12.1,6s12-2.1,12-4.7-1-2.5-3.1-3c-2.4-.5-8.4-.8-12.7-1-5.1-.3-10.8-.9-14-2.6-2.8-1.5-4.7-4.2-4.7-8,0-7.2,7-13.1,22.4-13.1s21.7,6.4,21.7,13.4h-10.2c0-3.5-3.5-5.6-11.5-5.6s-11,1.7-11,4.5,.8,2.4,2.5,2.9c2.1,.6,8,.9,12.3,1.2,5.7,.4,10.5,.8,13.8,2.2,3.7,1.5,5.8,4.6,5.8,8.3,0,6.1-3.3,13.4-23.3,13.4s-22.3-8.6-22.3-13.8h0Z"/><path class="cls-1" d="M218.8,59.9h-11v-7.6h31.7v7.6h-11v31.2h-9.7v-31.2Z"/><path class="cls-1" d="M242.6,52.3h11.8c8.8,0,12.8,3.6,12.8,11.5s-1.4,8.1-5.1,9.3h0c3.7,.9,5.1,3.2,5.1,6.9v11.2h-8.8v-10.9c0-2.5-1.2-3.7-3.8-3.7h-3.3v14.6h-8.7V52.3h0Zm11.8,18.7c2.9,0,4.2-1.7,4.2-5.7s-1.4-5.5-4.4-5.5h-3v11.2h3.2Z"/><path class="cls-1" d="M274.4,77.7l-5.7-25.4h8l1.8,17.5h.1l1.7-17.5h6.6l-5.7,25.4v13.4h-6.8v-13.4Z"/></svg>