<?xml version="1.0" encoding="UTF-8"?><svg id="Layer_1" xmlns="http://www.w3.org/2000/svg" viewBox="0 0 110 26.9"><defs><style>.cls-1{fill:#fff;}</style></defs><g><path class="cls-1" d="M46.8,8.4c.9,0,1.7,.2,2.4,.5,.8,.3,1.4,.8,2,1.3,.6,.6,1,1.2,1.4,2s.5,1.6,.5,2.4v6.3h-2.5v-6.3c0-.5-.1-1-.3-1.5-.2-.4-.5-.9-.8-1.2s-.8-.6-1.2-.8c-.5-.2-1-.3-1.5-.3s-1,.1-1.5,.3c-.4,.2-.9,.5-1.2,.8s-.6,.8-.8,1.2-.3,1-.3,1.5v6.3h-2.5v-6.3c0-.5-.1-1-.3-1.5-.2-.4-.5-.9-.8-1.2s-.8-.6-1.2-.8c-.5-.2-1-.3-1.5-.3s-1,.1-1.5,.3c-.4,.2-.9,.5-1.2,.8s-.6,.8-.8,1.2-.3,1-.3,1.5v6.3h-2.5v-6.3c0-.9,.2-1.7,.5-2.4,.3-.8,.8-1.4,1.3-2,.6-.6,1.2-1,2-1.3,.8-.3,1.6-.5,2.4-.5s2,.2,2.9,.7c.9,.4,1.6,1.1,2.2,1.9,.6-.8,1.3-1.4,2.2-1.9s1.8-.7,2.9-.7h.1Z"/><path class="cls-1" d="M91.8,16.5l1.8,1.8-.9,.9c-.6,.6-1.3,1.1-2.1,1.4-.8,.3-1.6,.5-2.4,.5s-1.6-.2-2.4-.5-1.4-.8-2.1-1.4c-.6-.6-1.1-1.3-1.4-2.1s-.4-1.6-.4-2.4,.1-1.6,.4-2.3c.3-.8,.8-1.4,1.4-2.1s1.3-1.1,2.1-1.4,1.6-.4,2.4-.4,1.6,.1,2.4,.4,1.5,.8,2.1,1.4l.9,.9-7,7c.7,.3,1.5,.5,2.3,.3s1.5-.5,2.1-1.1l.9-.9h0Zm-6.3-4.5c-.8,.8-1.1,1.6-1.1,2.7s.1,1.1,.4,1.6l1-1,1.4-1.4,1.5-1.5c.5-.5,.9-.8,1.1-1.1-.7-.3-1.5-.5-2.3-.4-.8,.1-1.5,.5-2.1,1.1h0Z"/><path class="cls-1" d="M95.3,12.2c.3-.8,.8-1.4,1.3-2,.6-.6,1.2-1,2-1.3,.8-.3,1.6-.5,2.4-.5s1.7,.2,2.4,.5c.8,.3,1.4,.8,2,1.3,.6,.6,1,1.2,1.4,2s.5,1.6,.5,2.4v6.3h-2.5v-6.3c0-.5-.1-1-.3-1.5-.2-.4-.5-.9-.8-1.2s-.8-.6-1.2-.8c-.5-.2-1-.3-1.5-.3s-1,.1-1.5,.3c-.4,.2-.9,.5-1.2,.8s-.6,.8-.8,1.2-.3,1-.3,1.5v6.3h-2.5v-6.3c0-.9,.2-1.7,.5-2.4h.1Z"/><path class="cls-1" d="M66.5,12.2c-.3-.8-.8-1.4-1.3-2-.6-.6-1.2-1-2-1.3-.8-.3-1.6-.5-2.4-.5s-1.7,.2-2.4,.5c-.8,.3-1.4,.8-2,1.3-.6,.6-1,1.2-1.4,2s-.5,1.6-.5,2.4,.2,1.7,.5,2.4c.3,.8,.8,1.4,1.4,2s1.2,1,2,1.4c.8,.3,1.6,.5,2.4,.5h2.2l1.6-1.6v1.6h2.5v-6.3c0-.9-.2-1.7-.5-2.4h0Zm-5.8,6.2c-.5,0-1-.1-1.5-.3-.5-.2-.9-.5-1.2-.8s-.6-.8-.8-1.2c-.2-.5-.3-1-.3-1.5s.1-1,.3-1.5c.2-.4,.5-.9,.8-1.2s.8-.6,1.2-.8c.5-.2,1-.3,1.5-.3s1,.1,1.5,.3c.4,.2,.9,.5,1.2,.8s.6,.8,.8,1.2,.3,1,.3,1.5v3.8h-3.8Z"/><path class="cls-1" d="M80.5,12.2c-.3-.8-.8-1.4-1.3-2-.6-.6-1.2-1-2-1.3-.8-.3-1.6-.5-2.4-.5s-1.7,.2-2.4,.5c-.8,.3-1.4,.8-2,1.3-.6,.6-1,1.2-1.4,2s-.5,1.6-.5,2.4,.2,1.7,.5,2.4c.3,.8,.8,1.4,1.4,2s1.2,1,2,1.4c.8,.3,1.6,.5,2.4,.5h2.2l1.6-1.6v1.6c0,.4-.1,.8-.3,1.2-.2,.4-.5,.9-.8,1.2s-.4,.4-.7,.5c0,0,0,0-.1,0h0c-.6,.3-1.2,.5-1.9,.5h-1.3v2.5h1.3c.7,0,1.3-.1,1.9-.3h0c.1,0,.2,0,.3-.1,.1,0,.2,0,.3-.1,.8-.3,1.4-.8,2-1.3,.6-.6,1-1.2,1.3-2,.3-.8,.5-1.6,.5-2.4h0v-6c0-.9-.2-1.7-.5-2.4,0,0,0,0,0,0Zm-5.8,6.3c-.5,0-1-.1-1.5-.3-.5-.2-.9-.5-1.2-.8s-.6-.8-.8-1.2c-.2-.5-.3-1-.3-1.5s.1-1,.3-1.5c.2-.4,.5-.9,.8-1.2s.8-.6,1.2-.8c.5-.2,1-.3,1.5-.3s1,.1,1.5,.3c.5,.2,.9,.5,1.2,.8s.6,.8,.8,1.2,.3,1,.3,1.5v3.8h-3.8Z"/><g><path class="cls-1" d="M28.6,3.4v2.5h-2.5V3.4s2.5,0,2.5,0Z"/><polygon class="cls-1" points="24.7 8.4 24.7 10.9 26.9 10.9 26.1 11.7 26.1 21 28.6 21 28.6 8.4 24.7 8.4"/></g></g><g><path class="cls-1" d="M34.8,24.8c-.1-.1-.2-.2-.3-.3s-.3-.1-.4-.1h-.9s0,0-.1,0c0,0,0,0,0,.1v2.2s0,0,0,.1,0,0,.1,0h.9c.2,0,.4,0,.6-.2,.1-.1,.3-.3,.3-.4s.1-.4,.1-.6,0-.3,0-.5-.1-.3-.2-.4h0Zm-.1,1.4c0,.1-.1,.3-.2,.3-.1,.1-.3,.1-.4,.1h-.7v-1.9h.7c.1,0,.2,0,.3,0s.2,.1,.2,.2c0,.1,.1,.2,.1,.3,0,.1,0,.2,0,.4s0,.3,0,.5Z"/><path class="cls-1" d="M37.3,24.7s0,0,.1,0c0,0,0,0,0-.1s0,0,0-.1c0,0,0,0-.1,0h-1.3s0,0-.1,0c0,0,0,0,0,.1v2.2s0,0,0,.1,0,0,.1,0h1.3s0,0,.1,0c0,0,0,0,0-.1s0,0,0-.1c0,0,0,0-.1,0h-1.1v-.9h1s0,0,.1,0c0,0,0,0,0-.1s0,0,0-.1c0,0,0,0-.1,0h-1v-.8s1.1,0,1.1,0Z"/><path class="cls-1" d="M40.1,24.4s0,0-.1,0c0,0,0,0,0,.1v1.9l-1.4-1.9h0s0,0,0,0,0,0-.1,0c0,0,0,0,0,.1v2.2s0,0,0,.1c0,0,0,0,.1,0s0,0,.1,0c0,0,0,0,0-.1v-1.8l1.4,1.9h.1s0,0,.1,0c0,0,0,0,0-.1v-2.2s0,0,0-.1,0,0-.1,0h0Z"/><path class="cls-1" d="M42.9,24.4h-1.6s0,0-.1,0,0,0,0,.1,0,0,0,.1,0,0,.1,0h.7v2.1s0,0,0,.1,0,0,.1,0,0,0,.1,0,0,0,0-.1v-2.1h.7s0,0,.1,0c0,0,0,0,0-.1s0,0,0-.1,0,0-.1,0Z"/><path class="cls-1" d="M44.7,24.5s0,0,0,0h-.2c0,0-.9,2.3-.9,2.3h0c0,.1,0,.2,.1,.2h0s0,0,0,0l.2-.6h1.1l.2,.6s0,0,0,0h0s0,0,.1,0c0,0,0,0,0-.1h0c0,0-.9-2.3-.9-2.3h0Zm-.6,1.5l.4-1.1,.4,1.1h-.9Z"/><path class="cls-1" d="M47.8,26.6h-1.1v-2.1s0,0,0-.1c0,0,0,0-.1,0s0,0-.1,0c0,0,0,0,0,.1v2.2s0,0,0,.1,0,0,.1,0h1.2s0,0,.1,0,0,0,0-.1,0,0,0-.1,0,0-.1,0h0Z"/><path class="cls-1" d="M51.4,24.5c-.1,0-.2-.1-.3-.1h-.8s0,0-.1,0c0,0,0,0,0,.1v2.2s0,0,0,.1c0,0,0,0,.1,0s0,0,.1,0c0,0,0,0,0-.1v-.9h.7c.1,0,.2,0,.3-.1,.1,0,.2-.2,.2-.3s.1-.2,.1-.4,0-.3-.1-.4c0-.1-.1-.2-.2-.3h0Zm0,1c0,0,0,.1-.1,.2s-.1,0-.2,0h-.7v-.9h.7c0,0,.1,0,.2,0,0,0,.1,.1,.1,.2s0,.1,0,.2,0,.2,0,.2h0Z"/><path class="cls-1" d="M53.5,24.5s0,0,0,0h-.2c0,0-.9,2.3-.9,2.3h0c0,.1,0,.2,.1,.2h0s0,0,0,0l.2-.6h1.1l.2,.6s0,0,0,0h0s0,0,.1,0c0,0,0,0,0-.1h0c0,0-.9-2.3-.9-2.3h0Zm-.6,1.5l.4-1.1,.4,1.1h-.9Z"/><path class="cls-1" d="M57,26.7h0v-.4c0-.1,0-.2,0-.3,0,0-.1-.1-.2-.2,0,0,0,0-.1,0,0,0,.1,0,.2-.1,0,0,.1-.1,.2-.2,0-.1,0-.2,0-.3s0-.3-.1-.4c0-.1-.1-.2-.2-.2s-.2-.1-.3-.1h-1s0,0-.1,0c0,0,0,0,0,.1v2.2s0,0,0,.1,0,0,.1,0,0,0,.1,0c0,0,0,0,0-.1v-.9h.9s.1,0,.1,0,0,0,.1,.1,0,.1,0,.2c0,.1,0,.2,0,.3,0,0,0,.1,.1,.2s0,0,.1,.1h.1s0,0,0,0h0c0-.1,0-.2,0-.2h0c0,0,0,0,0,0Zm-.8-1h-.8v-1h.8c.1,0,.2,0,.3,.1s.1,.2,.1,.3,0,.2,0,.3c0,0-.1,.1-.1,.2,0,0-.1,0-.2,0h0Z"/><path class="cls-1" d="M59.6,24.4h-1.6s0,0-.1,0,0,0,0,.1,0,0,0,.1,0,0,.1,0h.7v2.1s0,0,0,.1,0,0,.1,0,0,0,.1,0,0,0,0-.1v-2.1h.7s0,0,.1,0c0,0,0,0,0-.1s0,0,0-.1,0,0-.1,0h0Z"/><path class="cls-1" d="M62.3,24.4s0,0-.1,0c0,0,0,0,0,.1v1.9l-1.4-1.9h0s0,0,0,0,0,0-.1,0c0,0,0,0,0,.1v2.2s0,0,0,.1c0,0,0,0,.1,0s0,0,.1,0c0,0,0,0,0-.1v-1.8l1.4,1.9h.1s0,0,.1,0c0,0,0,0,0-.1v-2.2s0,0,0-.1,0,0-.1,0h0Z"/><path class="cls-1" d="M64.8,24.7s0,0,.1,0c0,0,0,0,0-.1s0,0,0-.1c0,0,0,0-.1,0h-1.3s0,0-.1,0c0,0,0,0,0,.1v2.2s0,0,0,.1,0,0,.1,0h1.3s0,0,.1,0c0,0,0,0,0-.1s0,0,0-.1c0,0,0,0-.1,0h-1.1v-.9h1s0,0,.1,0c0,0,0,0,0-.1s0,0,0-.1c0,0,0,0-.1,0h-1v-.8s1.1,0,1.1,0Z"/><path class="cls-1" d="M67.7,26.7h0v-.4c0-.1,0-.2,0-.3,0,0-.1-.1-.2-.2,0,0,0,0-.1,0,0,0,.1,0,.2-.1,0,0,.1-.1,.2-.2,0-.1,0-.2,0-.3s0-.3-.1-.4c0-.1-.1-.2-.2-.2s-.2-.1-.3-.1h-1s0,0-.1,0c0,0,0,0,0,.1v2.2s0,0,0,.1,0,0,.1,0,0,0,.1,0c0,0,0,0,0-.1v-.9h.9s.1,0,.1,0,0,0,.1,.1,0,.1,0,.2c0,.1,0,.2,0,.3,0,0,0,.1,.1,.2s0,0,.1,.1h.1s0,0,0,0h0c0-.1,0-.2,0-.2h0c0,0,0,0,0,0Zm-.8-1h-.8v-1h.8c.1,0,.2,0,.3,.1s.1,.2,.1,.3,0,.2,0,.3c0,0-.1,.1-.1,.2,0,0-.1,0-.2,0h0Z"/><path class="cls-1" d="M70.1,26c0,0-.1-.1-.2-.2s-.2-.1-.2-.1c-.1,0-.2,0-.3-.1-.1,0-.2,0-.3-.1s-.2,0-.2-.1c0,0,0-.1,0-.2s0-.1,0-.2c0,0,.1-.1,.2-.1,0,0,.2,0,.3,0h.2c0,0,.1,0,.2,0s.1,0,.1,.1h0s0,0,.1,0c0,0,0,0,0-.1s0-.1,0-.1c0,0-.2-.1-.3-.2-.1,0-.3,0-.4,0s-.3,0-.4,0-.2,.1-.3,.2-.1,.2-.1,.3,0,.2,0,.3c0,0,.1,.1,.2,.2s.1,.1,.2,.1,.2,0,.3,.1c.1,0,.2,0,.3,.1,.1,0,.2,.1,.2,.2,0,0,0,.1,0,.2s0,.1,0,.2-.1,.1-.2,.1c0,0-.2,0-.3,0s-.2,0-.4,0c-.1,0-.2-.1-.3-.2,0,0,0,0-.1,0s0,0-.1,0c0,0,0,0,0,.1h0c0,0,0,.1,0,.1,.1,.1,.2,.2,.4,.2,.1,0,.3,0,.4,0s.3,0,.4-.1c.1,0,.2-.1,.3-.2s.1-.2,.1-.3,0-.2,0-.3h.1q0,0,0,0Z"/></g><path class="cls-1" d="M13.1,0c-2.4,0-3.5,1.1-4.7,1.1S6,0,3.6,0C1.2,0,0,2.1,0,5.4s1.9,3.5,2,7.4c0,.6,0,1.3,0,2v.6c.1,2.4,.7,4.8,1.4,6.4,.5,1.2,1.1,1.9,1.6,1.9s.2,0,.3,0c.2,0,.5-.2,.7-.5,.4-.6,.8-1.6,.9-2.9,.1-.7,.1-1.5,.1-2.3v-6.3l.8-.8h-2.2v-2.5h3.8v9.6h0c0,.8,0,1.6,.1,2.3,.1,1.2,.4,2.3,.9,2.9,.2,.2,.4,.4,.7,.5,.1,0,.2,0,.3,0,.5,0,1.1-.8,1.6-1.9,.7-1.6,1.3-4,1.4-6.4v-.6c0-.7,0-1.3,0-2,.2-3.9,2-4.1,2-7.4S15.4,0,13,0h.1Zm-3.5,5.9h-2.5V3.4h2.5v2.5Z"/><path class="cls-1" d="M109.3,8.6c.2,.1,.4,.3,.5,.5s.2,.4,.2,.7,0,.5-.2,.7-.3,.4-.5,.5-.4,.2-.7,.2-.5,0-.7-.2-.4-.3-.5-.5-.2-.4-.2-.7,0-.5,.2-.7,.3-.4,.5-.5,.4-.2,.7-.2,.5,0,.7,.2Zm-.1,2.2c.2-.1,.3-.2,.4-.4s.1-.4,.1-.6,0-.4-.1-.6c-.1-.2-.2-.3-.4-.4-.2-.1-.4-.1-.6-.1s-.4,0-.6,.1-.3,.2-.4,.4-.1,.4-.1,.6,0,.4,.1,.6c.1,.2,.2,.3,.4,.4s.4,.1,.6,.1,.4,0,.6-.1Zm0-.4h0c0,0,0,.1,0,.1h-.1c0,0-.1,0-.1-.1s0-.1,0-.2,0-.1,0-.2c0,0-.1,0-.2,0h-.2v.5h0c0,0,0,.1-.1,.1s0,0-.1,0,0,0,0,0v-1.4h.5c.3,0,.5,.1,.5,.4s-.1,.3-.3,.4c0,0,.1,0,.1,.1s0,.1,0,.2h0c0,.1,0,.2,0,.2h0s.1,0,.1,0h0Zm-.3-.8c0,0,0-.1,0-.2s0-.1,0-.2-.1,0-.2,0h-.3v.4h.3c.1,0,.2,0,.2,0h0Z"/></svg>