<?xml version="1.0" encoding="UTF-8"?><svg id="Layer_1" xmlns="http://www.w3.org/2000/svg" viewBox="0 0 196 52"><defs><style>.cls-1{fill:#fff;}</style></defs><g><path class="cls-1" d="M83.6,17c1.6,0,3,.3,4.3,.8,1.3,.6,2.5,1.4,3.5,2.4,1,1,1.8,2.2,2.4,3.5s.8,2.8,.8,4.3v11.1h-4.4v-11.1c0-.9-.2-1.8-.5-2.6-.4-.8-.8-1.5-1.5-2.1s-1.3-1.1-2.1-1.5c-.8-.4-1.7-.5-2.6-.5s-1.8,.2-2.6,.5c-.8,.4-1.5,.8-2.1,1.5s-1.1,1.3-1.5,2.1-.5,1.7-.5,2.6v11.1h-4.4v-11.1c0-.9-.2-1.8-.5-2.6-.4-.8-.8-1.5-1.5-2.1s-1.3-1.1-2.1-1.5c-.8-.4-1.7-.5-2.6-.5s-1.8,.2-2.6,.5c-.8,.4-1.5,.8-2.1,1.5s-1.1,1.3-1.5,2.1-.5,1.7-.5,2.6v11.1h-4.4v-11.1c0-1.6,.3-3,.8-4.3,.6-1.3,1.4-2.5,2.4-3.5,1-1,2.2-1.8,3.5-2.4,1.3-.6,2.8-.8,4.3-.8s3.5,.4,5.1,1.2c1.5,.8,2.8,1.9,3.8,3.3,1-1.4,2.3-2.5,3.9-3.3s3.2-1.2,5-1.2h.2Z"/><path class="cls-1" d="M162.9,31.4l3.1,3.1-1.5,1.5c-1,1-2.2,1.9-3.6,2.4-1.3,.5-2.8,.8-4.2,.8s-2.9-.3-4.2-.8-2.5-1.4-3.6-2.4c-1.1-1.1-1.9-2.3-2.4-3.7s-.8-2.8-.8-4.2,.2-2.8,.8-4.1c.5-1.3,1.3-2.5,2.4-3.6s2.3-1.9,3.7-2.4,2.8-.8,4.2-.8,2.8,.2,4.2,.8,2.6,1.3,3.7,2.4l1.5,1.5-12.3,12.3c1.3,.6,2.6,.8,4,.6s2.6-.8,3.7-1.9l1.5-1.5h0Zm-11-7.9c-1.3,1.3-2,2.9-2,4.7s.2,2,.7,2.9l1.8-1.8,2.5-2.5,2.6-2.6c.8-.8,1.5-1.5,1.9-1.9-1.3-.6-2.6-.8-4-.7-1.4,.2-2.6,.8-3.7,1.9h.1Z"/><path class="cls-1" d="M169.1,23.8c.6-1.3,1.4-2.5,2.4-3.5,1-1,2.2-1.8,3.5-2.4,1.3-.6,2.8-.8,4.3-.8s3,.3,4.3,.8c1.3,.6,2.5,1.4,3.5,2.4,1,1,1.8,2.2,2.4,3.5s.8,2.8,.8,4.3v11.1h-4.4v-11.1c0-.9-.2-1.8-.5-2.6-.4-.8-.8-1.5-1.5-2.1s-1.3-1.1-2.1-1.5c-.8-.4-1.7-.5-2.6-.5s-1.8,.2-2.6,.5c-.8,.4-1.5,.8-2.1,1.5s-1.1,1.3-1.5,2.1-.5,1.7-.5,2.6v11.1h-4.4v-11.1c0-1.6,.3-3,.8-4.3h.2Z"/><path class="cls-1" d="M118.3,23.8c-.6-1.3-1.4-2.5-2.4-3.5-1-1-2.2-1.8-3.5-2.4-1.3-.6-2.8-.8-4.3-.8s-3,.3-4.3,.8c-1.3,.6-2.5,1.4-3.6,2.4-1,1-1.8,2.2-2.4,3.5s-.8,2.8-.8,4.3,.3,3,.8,4.3c.6,1.3,1.4,2.5,2.4,3.6s2.2,1.8,3.6,2.4c1.3,.6,2.8,.8,4.3,.8h3.8l2.8-2.8v2.8h4.4v-11.1c0-1.6-.3-3-.8-4.3h0Zm-10.2,10.9c-.9,0-1.8-.2-2.6-.5-.8-.4-1.5-.8-2.1-1.5s-1.1-1.3-1.5-2.1c-.4-.8-.5-1.7-.5-2.6s.2-1.8,.5-2.6c.4-.8,.8-1.5,1.5-2.1s1.3-1.1,2.1-1.5c.8-.4,1.7-.5,2.6-.5s1.8,.2,2.6,.5c.8,.4,1.5,.8,2.1,1.5s1.1,1.3,1.5,2.1,.5,1.7,.5,2.6v6.7h-6.7Z"/><path class="cls-1" d="M143,23.8c-.6-1.3-1.4-2.5-2.4-3.5-1-1-2.2-1.8-3.5-2.4-1.3-.6-2.8-.8-4.3-.8s-3,.3-4.3,.8c-1.3,.6-2.5,1.4-3.6,2.4-1,1-1.8,2.2-2.4,3.5s-.8,2.8-.8,4.3,.3,3,.8,4.3c.6,1.3,1.4,2.5,2.4,3.6s2.2,1.8,3.6,2.4c1.3,.6,2.8,.8,4.3,.8h3.9l2.8-2.8v2.8c0,.7-.2,1.4-.5,2.1-.4,.8-.8,1.5-1.5,2.1s-.7,.7-1.2,.9c0,0-.1,0-.2,.1h0c-1,.6-2.1,.9-3.4,.9h-2.2v4.4h2.2c1.2,0,2.3-.2,3.4-.5h0c.2,0,.3-.1,.5-.2,.2,0,.3-.1,.5-.2,1.3-.6,2.5-1.4,3.5-2.4,1-1,1.8-2.2,2.4-3.5,.6-1.3,.8-2.8,.8-4.3h0v-10.6c0-1.6-.3-3-.8-4.3,0,0-.1,0-.1,0Zm-10.2,11c-.9,0-1.8-.2-2.6-.5-.8-.4-1.5-.8-2.1-1.5s-1.1-1.3-1.5-2.1c-.4-.8-.5-1.7-.5-2.6s.2-1.8,.5-2.6c.4-.8,.8-1.5,1.5-2.1s1.3-1.1,2.1-1.5c.8-.4,1.7-.5,2.6-.5s1.8,.2,2.6,.5c.8,.4,1.5,.8,2.1,1.5s1.1,1.3,1.5,2.1,.5,1.7,.5,2.6v6.7h-6.7Z"/><g><path class="cls-1" d="M51.4,8.3v4.4h-4.4v-4.4s4.4,0,4.4,0Z"/><polygon class="cls-1" points="44.6 17 44.6 21.4 48.5 21.4 47.1 22.8 47.1 39.2 51.4 39.2 51.4 17 44.6 17"/></g></g><g><path class="cls-1" d="M62.4,46c-.2-.2-.4-.4-.6-.5s-.5-.2-.8-.2h-1.6c0,0-.1,0-.2,0,0,0,0,.1,0,.2v3.9c0,0,0,.1,0,.2s.1,0,.2,0h1.6c.4,0,.8-.1,1-.3,.2-.2,.5-.5,.6-.8s.2-.7,.2-1.1,0-.5-.1-.8-.2-.5-.4-.7h0Zm-.2,2.5c-.1,.2-.2,.5-.4,.6-.2,.2-.5,.2-.8,.2h-1.2v-3.4h1.2c.2,0,.4,0,.6,.1s.3,.2,.4,.4c.1,.2,.2,.4,.2,.5,0,.2,0,.4,0,.7s0,.6-.1,.8Z"/><path class="cls-1" d="M66.8,45.8c0,0,.1,0,.2,0,0,0,0-.1,0-.2s0-.1,0-.2c0,0-.1,0-.2,0h-2.2c0,0-.1,0-.2,0,0,0,0,.1,0,.2v3.9c0,0,0,.1,0,.2s.1,0,.2,0h2.2c0,0,.1,0,.2,0,0,0,0-.1,0-.2s0-.1,0-.2c0,0-.1,0-.2,0h-1.9v-1.5h1.7c0,0,.1,0,.2,0,0,0,0-.1,0-.2s0-.1,0-.2c0,0-.1,0-.2,0h-1.7v-1.4s1.9,0,1.9,0Z"/><path class="cls-1" d="M71.8,45.3c0,0-.1,0-.2,0,0,0,0,.1,0,.2v3.3l-2.5-3.4h-.1c0,0,0,0-.1,0s-.1,0-.2,0c0,0,0,.1,0,.2v3.9c0,0,0,.1,0,.2,0,0,.1,0,.2,0s.1,0,.2,0c0,0,0-.1,0-.2v-3.2l2.5,3.4h.2c0,0,.1,0,.2,0,0,0,0-.1,0-.2v-3.9c0,0,0-.1,0-.2s-.1,0-.2,0h0Z"/><path class="cls-1" d="M76.6,45.3h-2.9c0,0-.1,0-.2,0s0,.1,0,.2,0,.1,0,.2,.1,0,.2,0h1.2v3.6c0,0,0,.1,0,.2s.1,0,.2,0,.1,0,.2,0,0-.1,0-.2v-3.6h1.2c0,0,.1,0,.2,0,0,0,0-.1,0-.2s0-.1,0-.2-.1,0-.2,0Z"/><path class="cls-1" d="M79.9,45.5s0,0-.1-.1h-.4c0,.1-1.6,4.1-1.6,4.1v.2s.1,0,.2,0h.1s0,0,0-.1l.4-1h2l.4,1s0,.1,.1,.1h.1c0,0,.1,0,.2,0,0,0,0-.1,0-.2h0c0-.1-1.6-4.1-1.6-4.1h0Zm-1,2.7l.8-1.9,.8,1.9h-1.6Z"/><path class="cls-1" d="M85.3,49.2h-1.9v-3.6c0,0,0-.1,0-.2,0,0-.1,0-.2,0s-.1,0-.2,0c0,0,0,.1,0,.2v3.9c0,0,0,.1,0,.2s.1,0,.2,0h2.2c0,0,.1,0,.2,0s0-.1,0-.2,0-.1,0-.2-.1,0-.2,0h0Z"/><path class="cls-1" d="M91.6,45.5c-.2-.1-.4-.2-.6-.2h-1.5c0,0-.1,0-.2,0,0,0,0,.1,0,.2v3.9c0,0,0,.1,0,.2,0,0,.1,0,.2,0s.1,0,.2,0c0,0,0-.1,0-.2v-1.5h1.2c.2,0,.4,0,.6-.2,.2-.1,.3-.3,.4-.5s.2-.4,.2-.7,0-.5-.2-.7c-.1-.2-.2-.4-.4-.5h0Zm0,1.7c0,.1-.1,.2-.2,.3s-.2,.1-.4,.1h-1.2v-1.6h1.2c.1,0,.2,0,.4,.1,.1,0,.2,.2,.2,.3s.1,.2,.1,.4,0,.3-.1,.4h0Z"/><path class="cls-1" d="M95.4,45.5s0,0-.1-.1h-.4c0,.1-1.6,4.1-1.6,4.1v.2s.1,0,.2,0h.1s0,0,0-.1l.4-1h2l.4,1s0,.1,.1,.1h.1c0,0,.1,0,.2,0,0,0,0-.1,0-.2h0c0-.1-1.6-4.1-1.6-4.1h0Zm-1,2.7l.8-1.9,.8,1.9h-1.6Z"/><path class="cls-1" d="M101.6,49.3h-.1v-.7c0-.2,0-.3-.1-.5,0-.1-.2-.2-.3-.3,0,0-.1,0-.2-.1,.1,0,.2-.1,.4-.2,.1-.1,.2-.2,.3-.4,0-.2,.1-.3,.1-.5s0-.5-.2-.7c-.1-.2-.2-.3-.4-.4s-.4-.2-.6-.2h-1.8c0,0-.1,0-.2,0,0,0,0,.1,0,.2v3.9c0,0,0,.1,0,.2s.1,0,.2,0,.1,0,.2,0c0,0,0-.1,0-.2v-1.5h1.6c0,0,.2,0,.2,.1s.1,.1,.2,.2,0,.2,0,.3c0,.2,0,.4,0,.5,0,.1,.1,.2,.2,.3s.1,.1,.2,.2h.2s0,0,.1,0v-.2c0,0,0-.1-.1-.1h0c0,.1,0,.1,0,.1Zm-1.3-1.8h-1.5v-1.7h1.5c.2,0,.4,0,.5,.2s.2,.3,.2,.5,0,.3-.1,.5c0,.1-.2,.2-.2,.3-.1,0-.2,.1-.4,.1h0Z"/><path class="cls-1" d="M106,45.3h-2.9c0,0-.1,0-.2,0s0,.1,0,.2,0,.1,0,.2,.1,0,.2,0h1.2v3.6c0,0,0,.1,0,.2s.1,0,.2,0,.1,0,.2,0,0-.1,0-.2v-3.6h1.2c0,0,.1,0,.2,0,0,0,0-.1,0-.2s0-.1,0-.2-.1,0-.2,0h0Z"/><path class="cls-1" d="M110.9,45.3c0,0-.1,0-.2,0,0,0,0,.1,0,.2v3.3l-2.5-3.4h-.1c0,0,0,0-.1,0s-.1,0-.2,0c0,0,0,.1,0,.2v3.9c0,0,0,.1,0,.2,0,0,.1,0,.2,0s.1,0,.2,0c0,0,0-.1,0-.2v-3.2l2.5,3.4h.2c0,0,.1,0,.2,0,0,0,0-.1,0-.2v-3.9c0,0,0-.1,0-.2s-.1,0-.2,0h0Z"/><path class="cls-1" d="M115.4,45.8c0,0,.1,0,.2,0,0,0,0-.1,0-.2s0-.1,0-.2c0,0-.1,0-.2,0h-2.2c0,0-.1,0-.2,0,0,0,0,.1,0,.2v3.9c0,0,0,.1,0,.2s.1,0,.2,0h2.2c0,0,.1,0,.2,0,0,0,0-.1,0-.2s0-.1,0-.2c0,0-.1,0-.2,0h-1.9v-1.5h1.7c0,0,.1,0,.2,0,0,0,0-.1,0-.2s0-.1,0-.2c0,0-.1,0-.2,0h-1.7v-1.4s1.9,0,1.9,0Z"/><path class="cls-1" d="M120.4,49.3h-.1v-.7c0-.2,0-.3-.1-.5,0-.1-.2-.2-.3-.3,0,0-.1,0-.2-.1,.1,0,.2-.1,.4-.2,.1-.1,.2-.2,.3-.4,0-.2,.1-.3,.1-.5s0-.5-.2-.7c-.1-.2-.2-.3-.4-.4s-.4-.2-.6-.2h-1.8c0,0-.1,0-.2,0,0,0,0,.1,0,.2v3.9c0,0,0,.1,0,.2s.1,0,.2,0,.1,0,.2,0c0,0,0-.1,0-.2v-1.5h1.6c0,0,.2,0,.2,.1s.1,.1,.2,.2,0,.2,0,.3c0,.2,0,.4,0,.5,0,.1,.1,.2,.2,.3s.1,.1,.2,.2h.2s0,0,.1,0v-.2c0,0,0-.1-.1-.1h0c0,.1,0,.1,0,.1Zm-1.3-1.8h-1.5v-1.7h1.5c.2,0,.4,0,.5,.2s.2,.3,.2,.5,0,.3-.1,.5c0,.1-.2,.2-.2,.3-.1,0-.2,.1-.4,.1h0Z"/><path class="cls-1" d="M124.6,48.1c0-.1-.2-.2-.3-.4s-.3-.2-.4-.2c-.2,0-.4-.1-.5-.2-.2,0-.4-.1-.5-.2s-.3-.1-.4-.2c-.1-.1-.1-.2-.1-.4s0-.2,.1-.4c0-.1,.2-.2,.4-.2,.1,0,.3,0,.5,0h.4c.1,0,.2,0,.4,.1s.2,.1,.2,.2h.1c0,0,.1,0,.2,0,0,0,0-.1,0-.2s0-.2-.1-.2c-.1-.1-.3-.2-.5-.4-.2,0-.5-.1-.7-.1s-.5,0-.8,.1-.4,.2-.5,.4-.2,.4-.2,.6,0,.4,.1,.5c0,.1,.2,.2,.3,.4s.2,.2,.4,.2,.4,.1,.5,.2c.2,0,.4,.1,.5,.2,.2,0,.3,.2,.4,.3,.1,.1,.1,.2,.1,.4s0,.2-.1,.4-.2,.2-.4,.2c-.1,0-.3,0-.5,0s-.4,0-.7-.1c-.2,0-.4-.2-.5-.4,0,0-.1,0-.2,0s-.1,0-.2,0c0,0,0,.1,0,.2h0c0,.1,0,.2,0,.2,.2,.2,.4,.4,.7,.4,.2,.1,.5,.1,.8,.1s.5,0,.7-.2c.2-.1,.4-.2,.5-.4s.2-.4,.2-.6,0-.4-.1-.5h.2q0,.1,0,.1Z"/></g><path class="cls-1" d="M24.1,2.2c-4.2,0-6.2,1.9-8.4,1.9s-4.2-1.9-8.4-1.9C3.1,2.2,1,5.9,1,11.7s3.3,6.2,3.6,13c0,1.1,0,2.2,.1,3.5v1.1c.2,4.2,1.2,8.4,2.4,11.3,.9,2.1,1.9,3.4,2.9,3.4s.4,0,.5,0c.4-.1,.8-.4,1.2-.8,.8-1,1.3-2.8,1.6-5,.2-1.3,.2-2.7,.2-4.1v-11l1.5-1.5h-3.9v-4.4h6.7v16.9h0c0,1.5,0,2.8,.2,4.1,.2,2.2,.8,4,1.6,5,.4,.4,.7,.7,1.2,.8,.2,0,.3,0,.5,0,1,0,2-1.3,2.9-3.4,1.2-2.8,2.2-7.1,2.4-11.3v-1.1c0-1.2,0-2.3,.1-3.5,.3-6.8,3.6-7.2,3.6-13s-2.1-9.5-6.4-9.5h.2Zm-6.2,10.4h-4.4v-4.4h4.4v4.4Z"/><path class="cls-1" d="M193.7,17.4c.4,.2,.7,.5,.9,.9s.4,.8,.4,1.3-.1,.9-.4,1.3-.5,.7-.9,.9-.8,.3-1.3,.3-.8-.1-1.3-.3-.7-.5-.9-.9-.4-.8-.4-1.3,.1-.9,.4-1.3,.5-.7,.9-.9,.8-.3,1.3-.3,.8,.1,1.3,.3Zm-.2,3.9c.3-.2,.5-.4,.7-.7s.2-.7,.2-1,0-.7-.2-1c-.2-.3-.4-.5-.7-.7-.3-.2-.7-.2-1-.2s-.7,0-1,.2-.5,.4-.7,.7-.2,.7-.2,1,0,.7,.2,1c.2,.3,.4,.5,.7,.7s.7,.2,1,.2,.7,0,1-.2Zm0-.7h0c0,.1,0,.2-.1,.2h-.2c-.1,0-.2,0-.2-.2s-.1-.2-.1-.4,0-.2-.1-.3c0,0-.2-.1-.3-.1h-.4v.8h0c0,.1-.1,.2-.2,.2s-.1,0-.2,0,0-.1,0-.1v-2.4h.9c.6,0,.9,.2,.9,.8s-.2,.5-.5,.7c.1,0,.2,.1,.2,.2s.1,.2,.1,.4v.2s0,0,.1,.1h0c0,0,.2,0,.2,0h0Zm-.6-1.3c.1,0,.1-.2,.1-.3s0-.2-.1-.3-.2,0-.4,0h-.5v.8h.5c.2,0,.3,0,.4-.1h0Z"/></svg>