<?xml version="1.0" encoding="utf-8"?>
<!-- Generator: Adobe Illustrator 25.2.0, SVG Export Plug-In . SVG Version: 6.00 Build 0)  -->
<svg version="1.1" id="Layer_1" xmlns="http://www.w3.org/2000/svg" xmlns:xlink="http://www.w3.org/1999/xlink" x="0px" y="0px"
	 viewBox="0 0 260 260" style="enable-background:new 0 0 260 260;" xml:space="preserve">
<style type="text/css">
	.st0{fill:#06b6d4;}
</style>
<g>
	<path class="st0" d="M182.3,0.1C156-0.1,143.7,11.9,130,11.9s-26-12-52.3-11.7S38,23.3,38,59.6s20.4,38.5,22.3,81
		c0.3,6.9,0.5,14.1,0.8,21.4c0.1,2.2,0.2,4.4,0.3,6.6c1.4,25.9,7.5,52.4,15.2,70.2c5.6,13,12.1,21.3,18.2,21.3
		c1.1,0,2.1-0.2,3.1-0.5c2.8-0.8,5.2-2.7,7.3-5.4c4.9-6.4,8.1-17.6,9.8-31.2c1-7.9,1.5-16.6,1.5-25.6c0-15.1,0-51.9,0-51.9l0,0v-14
		v-2.3l9-9h-9h-15V92.9h15h12.7h14.4v52.7c0,0,0,36.8,0,51.9c0,9,0.5,17.7,1.5,25.6c1.7,13.6,4.9,24.7,9.8,31.2
		c2.1,2.7,4.5,4.6,7.3,5.4c1,0.3,2,0.5,3.1,0.5c6.1,0,12.6-8.3,18.2-21.3c7.7-17.8,13.8-44.3,15.2-70.2c0.1-2.2,0.2-4.4,0.3-6.6
		c0.3-7.3,0.5-14.4,0.8-21.4c1.9-42.5,22.3-44.7,22.3-81S208.6,0.4,182.3,0.1z M143.5,65.5h-27.1V38.1h27.1V65.5z"/>
</g>
</svg>
