<?xml version="1.0" standalone="no"?>
<!DOCTYPE svg PUBLIC "-//W3C//DTD SVG 20010904//EN"
 "http://www.w3.org/TR/2001/REC-SVG-20010904/DTD/svg10.dtd">
<svg version="1.0" xmlns="http://www.w3.org/2000/svg"
 width="150.000000pt" height="150.000000pt" viewBox="0 0 150.000000 150.000000"
 preserveAspectRatio="xMidYMid meet">
<metadata>
Created by potrace 1.14, written by Peter Selinger 2001-2017
</metadata>
<g transform="translate(0.000000,150.000000) scale(0.100000,-0.100000)"
fill="#000000" stroke="none">
<path d="M373 1483 c-64 -22 -116 -95 -139 -192 -27 -115 -8 -257 46 -356 49
-88 62 -156 75 -385 10 -174 33 -289 82 -410 48 -119 96 -160 147 -127 65 43
87 171 88 506 l0 236 26 27 26 28 -70 -3 -70 -2 1 80 1 80 109 1 c61 0 115 -1
121 -3 8 -3 11 -104 12 -333 0 -181 4 -357 7 -390 22 -212 101 -298 179 -196
35 47 81 168 102 271 24 116 32 193 35 307 1 76 7 123 23 198 4 20 20 60 57
138 43 95 53 142 46 245 -4 67 -12 107 -30 148 -47 108 -94 141 -202 144 -57
2 -89 -3 -175 -32 -116 -38 -128 -38 -245 2 -95 33 -192 40 -252 18z m456
-281 l-1 -78 -78 -1 -78 -1 0 79 -1 79 79 0 79 0 0 -78z"/>
</g>
</svg>
